<svg width="24" height="24" viewBox="0 0 24 24" fill="none" xmlns="http://www.w3.org/2000/svg">
<path d="M18.1768 5.82322L18.8839 5.11612L18.8839 5.11612L18.1768 5.82322ZM18.1768 6.17678L18.8839 6.88388L18.8839 6.88388L18.1768 6.17678ZM17.8232 5.82322L17.1161 5.11612L17.1161 5.11612L17.8232 5.82322ZM12 11.6464L11.2929 12.3536C11.6834 12.7441 12.3166 12.7441 12.7071 12.3536L12 11.6464ZM6.17678 5.82322L5.46967 6.53033L5.46967 6.53033L6.17678 5.82322ZM5.82322 5.82322L6.53033 6.53033L6.53033 6.53033L5.82322 5.82322ZM5.82322 6.17678L6.53033 5.46967L6.53033 5.46967L5.82322 6.17678ZM11.6464 12L12.3536 12.7071C12.7441 12.3166 12.7441 11.6834 12.3536 11.2929L11.6464 12ZM5.82322 17.8232L5.11612 17.1161L5.11612 17.1161L5.82322 17.8232ZM5.82322 18.1768L5.11612 18.8839L5.11612 18.8839L5.82322 18.1768ZM6.17678 18.1768L6.88388 18.8839L6.88388 18.8839L6.17678 18.1768ZM12 12.3536L12.7071 11.6464C12.3166 11.2559 11.6834 11.2559 11.2929 11.6464L12 12.3536ZM17.8232 18.1768L17.1161 18.8839L17.1161 18.8839L17.8232 18.1768ZM18.1768 18.1768L18.8839 18.8839L18.8839 18.8839L18.1768 18.1768ZM18.1768 17.8232L18.8839 17.1161L18.8839 17.1161L18.1768 17.8232ZM12.3536 12L11.6464 11.2929C11.2559 11.6834 11.2559 12.3166 11.6464 12.7071L12.3536 12ZM17.4697 6.53033C17.1768 6.23744 17.1768 5.76256 17.4697 5.46967L18.8839 6.88388C19.372 6.39573 19.372 5.60427 18.8839 5.11612L17.4697 6.53033ZM18.5303 6.53033C18.2374 6.82322 17.7626 6.82322 17.4697 6.53033L18.8839 5.11612C18.3957 4.62796 17.6043 4.62796 17.1161 5.11612L18.5303 6.53033ZM12.7071 12.3536L18.5303 6.53033L17.1161 5.11612L11.2929 10.9393L12.7071 12.3536ZM5.46967 6.53033L11.2929 12.3536L12.7071 10.9393L6.88388 5.11612L5.46967 6.53033ZM6.53033 6.53033C6.23744 6.82322 5.76256 6.82322 5.46967 6.53033L6.88388 5.11612C6.39573 4.62796 5.60427 4.62796 5.11612 5.11612L6.53033 6.53033ZM6.53033 5.46967C6.82322 5.76256 6.82322 6.23744 6.53033 6.53033L5.11612 5.11612C4.62796 5.60427 4.62796 6.39573 5.11612 6.88388L6.53033 5.46967ZM12.3536 11.2929L6.53033 5.46967L5.11612 6.88388L10.9393 12.7071L12.3536 11.2929ZM6.53033 18.5303L12.3536 12.7071L10.9393 11.2929L5.11612 17.1161L6.53033 18.5303ZM6.53033 17.4697C6.82322 17.7626 6.82322 18.2374 6.53033 18.5303L5.11612 17.1161C4.62796 17.6043 4.62796 18.3957 5.11612 18.8839L6.53033 17.4697ZM5.46967 17.4697C5.76256 17.1768 6.23744 17.1768 6.53033 17.4697L5.11612 18.8839C5.60427 19.372 6.39573 19.372 6.88388 18.8839L5.46967 17.4697ZM11.2929 11.6464L5.46967 17.4697L6.88388 18.8839L12.7071 13.0607L11.2929 11.6464ZM18.5303 17.4697L12.7071 11.6464L11.2929 13.0607L17.1161 18.8839L18.5303 17.4697ZM17.4697 17.4697C17.7626 17.1768 18.2374 17.1768 18.5303 17.4697L17.1161 18.8839C17.6043 19.372 18.3957 19.372 18.8839 18.8839L17.4697 17.4697ZM17.4697 18.5303C17.1768 18.2374 17.1768 17.7626 17.4697 17.4697L18.8839 18.8839C19.372 18.3957 19.372 17.6043 18.8839 17.1161L17.4697 18.5303ZM11.6464 12.7071L17.4697 18.5303L18.8839 17.1161L13.0607 11.2929L11.6464 12.7071ZM17.4697 5.46967L11.6464 11.2929L13.0607 12.7071L18.8839 6.88388L17.4697 5.46967Z" fill="#111111"/>
</svg>
