<svg width="24" height="24" viewBox="0 0 24 24" fill="none" xmlns="http://www.w3.org/2000/svg">
<path fill-rule="evenodd" clip-rule="evenodd" d="M20.4001 16.6789V4.01242C20.4001 3.46014 19.9524 3.01242 19.4001 3.01242H14.5661H10.9984H6.5221C5.97015 3.01242 5.52258 3.45961 5.5221 4.01155L5.51477 12.4301H3C2.44772 12.4301 2 12.8778 2 13.4301V19.8002C2 20.3524 2.44772 20.8002 3 20.8002H5.83375C6.33089 20.8002 6.73391 20.3971 6.73391 19.9H20.3894C21.2775 19.9 22 19.1775 22 18.2894C22 17.4048 21.2833 16.6848 20.4001 16.6789Z" fill="#111111"/>
<path fill-rule="evenodd" clip-rule="evenodd" d="M5.51073 19.0768C5.51073 19.3529 5.28687 19.5768 5.01073 19.5768H3.72339C3.44725 19.5768 3.22339 19.3529 3.22339 19.0768V14.1533C3.22339 13.8772 3.44725 13.6533 3.72339 13.6533H5.01073C5.28687 13.6533 5.51073 13.8772 5.51073 14.1533V19.0768Z" fill="white"/>
<path fill-rule="evenodd" clip-rule="evenodd" d="M6.74473 4.73527C6.74497 4.45929 6.96876 4.2357 7.24473 4.2357H10.9983H14.566H18.6768C18.9529 4.2357 19.1768 4.45956 19.1768 4.7357V16.1787C19.1768 16.4549 18.9529 16.6787 18.6768 16.6787H12.8863C12.7443 16.6787 12.6288 16.5632 12.6288 16.4212C12.6288 16.2793 12.7443 16.1638 12.8863 16.1638H15.0759C16.0039 16.1638 16.7589 15.4088 16.7589 14.4809C16.7589 13.6523 16.1406 12.9365 15.3208 12.8159L13.4159 12.5358C11.628 12.2729 10.495 12.5288 9.02958 13.093L6.73657 14.0756L6.74473 4.73527Z" fill="white"/>
<path fill-rule="evenodd" clip-rule="evenodd" d="M20.3893 18.6767H6.73389V16.9798H6.73412L6.73553 15.4068L9.47979 14.2304C10.9754 13.6556 11.8549 13.5425 13.238 13.7459L15.1429 14.026C15.3668 14.059 15.5357 14.2545 15.5357 14.4807C15.5357 14.7342 15.3295 14.9404 15.076 14.9404H12.8863C12.0698 14.9404 11.4055 15.6046 11.4055 16.4211C11.4055 17.2376 12.0698 17.9018 12.8863 17.9018H20.3893C20.6029 17.9018 20.7767 18.0756 20.7767 18.2893C20.7767 18.5029 20.6029 18.6767 20.3893 18.6767Z" fill="white"/>
</svg>
