<svg width="24" height="24" viewBox="0 0 24 24" fill="none" xmlns="http://www.w3.org/2000/svg">
<path fill-rule="evenodd" clip-rule="evenodd" d="M18.2587 17.4048V12.0026C18.2582 11.5206 17.988 11.0754 17.5497 10.8344L12.5864 8.13332C12.1477 7.89206 11.6071 7.89206 11.1684 8.13332L6.20513 10.8344C5.76683 11.0754 5.49661 11.5206 5.49609 12.0026V17.4048C5.49661 17.8868 5.76683 18.332 6.20513 18.573L11.1684 21.2741C11.6071 21.5153 12.1477 21.5153 12.5864 21.2741L17.5497 18.573C17.988 18.332 18.2582 17.8868 18.2587 17.4048Z" stroke="#111111" stroke-width="1.2" stroke-linecap="round" stroke-linejoin="round"/>
<path fill-rule="evenodd" clip-rule="evenodd" d="M5.95557 10.8151C5.68683 10.6671 5.34895 10.7649 5.2009 11.0336C5.05284 11.3024 5.15068 11.6403 5.41942 11.7883L11.3218 15.0401V21.5118C11.3218 21.8186 11.5705 22.0674 11.8774 22.0674C12.1842 22.0674 12.4329 21.8186 12.4329 21.5118V15.0401L18.3353 11.7883C18.604 11.6403 18.7019 11.3024 18.5538 11.0336C18.4058 10.7649 18.0679 10.6671 17.7991 10.8151L11.8774 14.0775L5.95557 10.8151Z" fill="#111111"/>
<path fill-rule="evenodd" clip-rule="evenodd" d="M11.3634 2.49603C11.3634 2.22208 11.5855 2 11.8594 2C12.1334 2 12.3554 2.22208 12.3554 2.49603V4.48016C12.3554 4.75411 12.1334 4.97619 11.8594 4.97619C11.5855 4.97619 11.3634 4.75411 11.3634 4.48016V2.49603ZM17.5815 3.92394C17.7752 3.73023 18.0893 3.73023 18.283 3.92394C18.4767 4.11766 18.4767 4.43173 18.283 4.62544L16.88 6.02843C16.6863 6.22214 16.3722 6.22214 16.1785 6.02843C15.9848 5.83472 15.9848 5.52065 16.1785 5.32693L17.5815 3.92394ZM5.43606 3.92394C5.24234 4.11765 5.24234 4.43172 5.43606 4.62544L6.83905 6.02843C7.03276 6.22214 7.34683 6.22214 7.54054 6.02843C7.73425 5.83471 7.73425 5.52064 7.54054 5.32693L6.13755 3.92394C5.94384 3.73023 5.62977 3.73023 5.43606 3.92394Z" fill="#111111"/>
</svg>
