<svg width="24" height="24" viewBox="0 0 24 24" fill="none" xmlns="http://www.w3.org/2000/svg">
<path d="M17.4545 5.87995L11.0909 2.24359C10.5284 1.9188 9.83527 1.9188 9.27273 2.24359L2.90909 5.87995C2.34712 6.20441 2.00067 6.80377 2 7.45268V15.7248" stroke="#111111" stroke-width="2" stroke-linecap="round" stroke-linejoin="round"/>
<path fill-rule="evenodd" clip-rule="evenodd" d="M22.0001 19.3068V11.0568C21.9994 10.3207 21.653 9.64078 21.091 9.27273H6.54557C5.98359 9.64078 5.63714 10.3207 5.63647 11.0568V19.3068C5.63714 20.0429 5.98359 20.7229 6.54557 21.0909H21.091C21.653 20.7229 21.9994 20.0429 22.0001 19.3068Z" stroke="#111111" stroke-width="2" stroke-linecap="round" stroke-linejoin="round"/>
<path d="M21.0911 11.0909L14.7275 14.7273C14.1649 15.0521 13.4718 15.0521 12.9093 14.7273L6.54565 11.0909" stroke="#111111" stroke-width="2" stroke-linecap="round" stroke-linejoin="round"/>
</svg>
