<svg width="66" height="99" fill="none" xmlns="http://www.w3.org/2000/svg"><path fill-rule="evenodd" clip-rule="evenodd" d="M33.473 49.465l.002 32.488 32.475-16.24V33.236L33.473 49.465z" fill="#D9D9D9"/><path fill-rule="evenodd" clip-rule="evenodd" d="M1 65.712l32.475 16.241V49.478L1 33.238v32.474zM33.475 17L1 33.22l32.475 16.255L65.95 33.236 33.475 17z" fill="#F2F2F2"/><path fill-rule="evenodd" clip-rule="evenodd" d="M1 33.237v.074l32.475 16.241v-.147L1.074 33.2 1 33.237zM33.475 49.405v.147L65.95 33.31v-.073l-.074-.037-32.4 16.205z" fill="#B5B5B5"/><path fill-rule="evenodd" clip-rule="evenodd" d="M33.475 49.478l32.475-16.24-32.475 16.24z" fill="#94816C"/><path fill-rule="evenodd" clip-rule="evenodd" d="M33.475 53.482v-4.004s-1.848 12.738 0 32.475v-5.087c-.715-10.685-.357-18.852 0-23.384z" fill="#D9D9D9"/><path fill-rule="evenodd" clip-rule="evenodd" d="M33.475 80.235V50.12c-.357 4.532-.715 19.43 0 30.115z" fill="#B5B5B5"/><path fill-rule="evenodd" clip-rule="evenodd" d="M18.558 58.886l-4.686-2.343V39.76l4.686 2.343v16.782z" fill="#FFD64D"/><path fill-rule="evenodd" clip-rule="evenodd" d="M13.87 39.762l4.686 2.343 32.787-16.172-4.687-2.343L13.87 39.762z" fill="#FFD64D"/><path fill-rule="evenodd" clip-rule="evenodd" d="M12.013 46.992l-8.194-2.384-.967-5.107 8.194 2.384.967 5.107z" fill="#fff"/><path fill-rule="evenodd" clip-rule="evenodd" d="M4.98 44.098l-.199-.058-.627-3.312.2.057.626 3.313zM5.21 44.165l-.099-.029-.627-3.313.1.03.627 3.312zM5.44 44.232l-.099-.029-.627-3.313.1.03.627 3.312zM5.671 44.3l-.1-.03-.627-3.313.1.03.627 3.312zM5.901 44.366l-.1-.029-.626-3.313.1.03.626 3.312zM6.231 44.462l-.2-.058-.626-3.313.199.058.627 3.313zM7.12 44.721l-.099-.029-.627-3.313.1.03.627 3.312zM7.351 44.788l-.1-.029-.627-3.313.1.03.627 3.312zM7.68 44.884l-.198-.058-.627-3.313.199.058.627 3.313zM6.56 44.558l-.198-.058-.627-3.313.199.059.627 3.312zM6.89 44.654l-.199-.058-.627-3.313.2.058.627 3.313zM8.01 44.98l-.199-.058-.627-3.313.2.058.627 3.313zM8.24 45.047l-.099-.029-.627-3.313.1.03.627 3.312zM8.471 45.114l-.1-.029-.627-3.313.1.03.627 3.312zM8.701 45.18l-.1-.028-.626-3.313.1.03.626 3.312zM8.931 45.248l-.1-.029-.626-3.313.1.03.626 3.312zM9.261 45.344l-.199-.058-.627-3.313.2.058.626 3.313zM10.15 45.603l-.099-.03-.627-3.312.1.029.627 3.313zM10.381 45.67l-.1-.03-.627-3.312.1.03.627 3.312zM10.71 45.766l-.198-.058-.627-3.313.199.058.627 3.313zM9.59 45.44l-.198-.058-.627-3.313.199.058.627 3.313zM9.92 45.536l-.198-.058-.628-3.313.2.058.627 3.313z" fill="#2C323D"/><path fill-rule="evenodd" clip-rule="evenodd" d="M31.18 55.802l-10.286-5.144v-4.892L31.18 50.91v4.892z" fill="#fff"/><path fill-rule="evenodd" clip-rule="evenodd" d="M5.89 66.366c0 .14-.113.196-.253.126l-3.258-1.63c-.14-.07-.253-.239-.253-.378v-3.26c0-.138.113-.195.253-.125l3.258 1.63c.14.07.253.239.253.378v3.26zm-.054-3.73L2.18 60.808c-.135-.068-.245-.013-.245.123v3.655c0 .136.11.301.245.369l3.656 1.828c.135.068.245.013.245-.123v-3.655c0-.136-.11-.3-.245-.369z" fill="#2C323D"/><path fill-rule="evenodd" clip-rule="evenodd" d="M3.342 64.763l-.23-.116v-2.51l.23.116v2.51z" fill="#2C323D"/><path fill-rule="evenodd" clip-rule="evenodd" d="M3.227 61.867l-.315.473.315.157.314.157-.314-.787zM4.905 65.544l-.231-.116V62.92l.23.116v2.509z" fill="#2C323D"/><path fill-rule="evenodd" clip-rule="evenodd" d="M4.79 62.648l-.315.473.314.157.315.158-.315-.788zM2.587 64.728v-.23l2.842 1.42v.231l-2.842-1.42zM10.807 68.825c0 .14-.113.196-.253.126l-3.259-1.63c-.139-.07-.252-.239-.252-.378v-3.26c0-.139.113-.195.252-.125l3.26 1.63c.139.07.252.239.252.378v3.259zm-.055-3.73l-3.655-1.828c-.136-.068-.246-.013-.246.123v3.655c0 .136.11.3.246.369l3.655 1.828c.136.068.246.013.246-.123v-3.655c0-.136-.11-.301-.245-.369z" fill="#2C323D"/><path fill-rule="evenodd" clip-rule="evenodd" d="M9.787 66.917c-.31-.154-.56-.53-.56-.838v-1.292l1.119.56v1.29c0 .31-.25.434-.56.28z" fill="#2C323D"/><path fill-rule="evenodd" clip-rule="evenodd" d="M9.852 68.246l-.13-.066v-1.35l.13.065v1.35z" fill="#2C323D"/><path fill-rule="evenodd" clip-rule="evenodd" d="M9.228 68.025c0-.073.058-.102.13-.066l.857.428c.072.037.13.125.13.197l-1.117-.56zM8.507 65.718c0 .245-.2.345-.444.222-.245-.122-.444-.421-.444-.666v-1.176l.888.444v1.176zm-1.003-1.793v1.291c0 .31.25.685.559.84.309.153.559.028.559-.28v-1.292l-1.118-.559z" fill="#2C323D"/><path fill-rule="evenodd" clip-rule="evenodd" d="M8.128 67.383l-.13-.065v-1.35l.13.065v1.35z" fill="#2C323D"/><path fill-rule="evenodd" clip-rule="evenodd" d="M7.504 67.162c0-.072.058-.101.13-.065l.857.428c.072.036.13.124.13.197l-1.117-.56zM15.723 71.284c0 .14-.113.196-.252.126l-3.259-1.63c-.14-.07-.252-.239-.252-.378v-3.26c0-.139.113-.195.252-.125l3.259 1.63c.14.07.252.239.252.378v3.259zm-.054-3.73l-3.655-1.828c-.136-.068-.246-.013-.246.123v3.655c0 .136.11.3.246.369l3.655 1.828c.136.068.246.013.246-.123v-3.656c0-.135-.11-.3-.246-.368z" fill="#2C323D"/><path fill-rule="evenodd" clip-rule="evenodd" d="M13.098 68.262c.107-.039.245-.025.396.05.152.076.29.201.397.346.106-.039.244-.025.396.05.151.076.29.201.396.346.106-.038.245-.025.396.05a.973.973 0 01.097.057c-.057-.68-.604-1.466-1.271-1.8-.666-.332-1.212-.096-1.271.525a.815.815 0 01.068.03c.152.076.29.201.396.346z" fill="#2C323D"/><path fill-rule="evenodd" clip-rule="evenodd" d="M13.634 70.28c-.187-.095-.34-.324-.34-.511v-.066c0-.038.032-.054.07-.035.039.02.07.067.07.105v.066c0 .11.09.245.2.3.111.056.2.01.2-.1v-2.833c0-.039.032-.055.07-.035.04.02.07.066.07.105v2.833c0 .188-.152.264-.34.17zM35.179 20.59l-8.642 4.32-.27-.134 8.643-4.321.269.134zM36.027 21.013l-8.642 4.321-.269-.134 8.642-4.321.269.134zM36.875 21.437l-8.642 4.321-.269-.134 8.642-4.321.269.134zM37.723 21.861l-8.642 4.321-.269-.134 8.642-4.321.269.134zM36.658 40.047l-8.641 4.322-.27-.135 8.642-4.321.27.135zM37.507 40.471l-8.642 4.322-.27-.135 8.643-4.32.269.133zM38.355 40.896l-8.642 4.32-.27-.134 8.643-4.321.269.135zM39.203 41.32l-8.642 4.32-.27-.134 8.643-4.321.269.135z" fill="#2C323D"/></svg>