<svg width="70" height="70" fill="none" xmlns="http://www.w3.org/2000/svg"><path fill-rule="evenodd" clip-rule="evenodd" d="M64.997 38.77a1.045 1.045 0 000-.167v-2.507h-2.951l-11.148-6.43c-1.39-.805-3.492-.893-4.696-.195L7.958 51.892H5.006L5 54.224l.002.086c-.004.536.384 1.105 1.147 1.546l12.956 7.478c1.389.805 3.491.892 4.695.195l40.39-23.664c.509-.294.768-.646.803-1.055l.007-.148-.003.108z" fill="#D9D9D9"/><path fill-rule="evenodd" clip-rule="evenodd" d="M5.365 52.017l-.005 2.13.002.079c-.003.492.38.994 1.05 1.38l12.878 7.401c1.33.768 3.344.856 4.487.194l40.149-23.424c.446-.258.677-.555.707-.905l.006-.135-.003-.042V36.38h-2.8l-11.123-6.388c-1.33-.767-3.343-.855-4.488-.193L8.167 52.017H5.365zM21.841 64c-.95 0-1.951-.23-2.731-.68L6.233 55.917c-.786-.453-1.235-1.069-1.231-1.688L5 54.151l.007-2.494h3.064l37.974-22.17c1.244-.718 3.419-.632 4.848.193l11.038 6.34h3.066v2.663c.004.051.005.115 0 .18h-.003l-.001.033c-.04.475-.339.875-.888 1.192L23.957 63.513c-.565.326-1.323.487-2.116.487z" fill="#B5B5B5"/><path fill-rule="evenodd" clip-rule="evenodd" d="M64.188 37.865L23.8 61.53c-1.204.697-3.306.61-4.695-.195L6.149 53.856c-1.389-.805-1.54-2.024-.337-2.72L46.2 27.47c1.204-.698 3.306-.61 4.696.196l12.955 7.477c1.389.805 1.54 2.024.337 2.721z" fill="#D9D9D9"/><path fill-rule="evenodd" clip-rule="evenodd" d="M62.866 36.143L50.09 28.667c-1.372-.806-3.445-.894-4.632-.196L5.623 52.135c-.284.166-.49.365-.623.579v1.235c.182.326.5.64.955.908l12.778 7.477c1.37.805 3.444.892 4.631.196L63.2 38.865c1.187-.698 1.038-1.916-.333-2.722z" fill="#F2F2F2"/><path fill-rule="evenodd" clip-rule="evenodd" d="M48.16 27.354c-.728 0-1.42.146-1.936.444L6.078 51.224c-.463.268-.718.627-.718 1.014 0 .484.383.983 1.053 1.368l12.877 7.402c1.33.767 3.343.854 4.488.193l40.145-23.425c.463-.268.718-.628.718-1.015 0-.482-.385-.982-1.053-1.368l-12.877-7.4c-.73-.423-1.666-.639-2.551-.639zM21.84 62c-.951 0-1.952-.23-2.732-.68L6.233 53.917C5.449 53.467 5 52.853 5 52.238c0-.52.32-.992.899-1.326l40.144-23.425c1.245-.72 3.42-.631 4.848.193l12.877 7.402c.784.452 1.232 1.065 1.232 1.679 0 .522-.318.994-.897 1.328L23.957 61.514c-.565.326-1.323.486-2.116.486z" fill="#B5B5B5"/><path fill-rule="evenodd" clip-rule="evenodd" d="M22 61.555V64l2.019-.632 40.802-23.58L65 37l-1.321.996L23.057 61.38 22 61.555z" fill="#B5B5B5"/><path fill-rule="evenodd" clip-rule="evenodd" d="M22 41.585L21.585 59 60.91 36.378l.09-.052V19L22 41.585z" fill="#FFD64D"/><path fill-rule="evenodd" clip-rule="evenodd" d="M9 32l13 7.817V59L9 51.17V32z" fill="#D9D9D9"/><path fill-rule="evenodd" clip-rule="evenodd" d="M47.879 6L64 15.46 22.121 40 6 30.54 47.879 6z" fill="#D9D9D9"/><path fill-rule="evenodd" clip-rule="evenodd" d="M59.646 36l-10.899 6.303v-5.81l1.145-.66c.23-.133.405-.458.405-.755v-.459c0-.185-.072-.334-.198-.407-.112-.064-.252-.06-.384.017l-.968.557V28.92l10.899-6.304V36zM24.356 43l11.865-6.837V49.55l-11.866 6.837V43.001zm14.024 5.297V34.92l4.272-2.462.92-.53v13.367l-5.192 3.003zm-1.057-12.77l.701-.403V48.51l-.7.403V35.529zm6.605 9.561V31.724l2.672-1.54v13.36l-2.672 1.545zm-7.351-9.129l.391-.226v13.384l-.391.225V35.96zm11.815-.97v7.518l-1.437.83V29.98l1.437-.828v5.839zm.355.206l1.173-.677c.005.005.022.035.022.1v.46c0 .18-.12.385-.227.446l-.968.559v-.888zM24 42.796V57l36-20.796V22L24 42.796z" fill="#111"/><path fill-rule="evenodd" clip-rule="evenodd" d="M52.864 12L60 16.168 22.135 38 15 33.832 52.864 12zM46.91 10L50 11.719 12.09 33 9 31.282 46.91 10z" fill="#F2F2F2"/><path fill-rule="evenodd" clip-rule="evenodd" d="M22 40.02L21.975 42 6 32.98 6.026 31 22 40.02z" fill="#D9D9D9"/><path fill-rule="evenodd" clip-rule="evenodd" d="M22.27 41.49L6.36 32.36l.02-1.64 15.91 9.128-.02 1.64zM48.456 6.41l15.907 9.127-31.688 18.157-10.205 5.847-15.906-9.127L48.456 6.41zm16.438 9.022L48.456 6 6.028 30.311 6 32.565 22.445 42l42.46-24.289.095-.054-.106-2.225z" fill="#B5B5B5"/><path fill-rule="evenodd" clip-rule="evenodd" d="M22 42v-.415L61 19l-.003.416L22 42z" fill="#111"/></svg>